<svg xmlns="http://www.w3.org/2000/svg" viewBox="0 0 360 360" width="360" height="360">
  <defs>
    <linearGradient id="bg" x1="0%" y1="0%" x2="100%" y2="100%">
      <stop offset="0%" stop-color="#74b9ff" stop-opacity="0.15"/>
      <stop offset="100%" stop-color="#a29bfe" stop-opacity="0.15"/>
    </linearGradient>
  </defs>

  <rect width="360" height="360" rx="20" fill="url(#bg)"/>

  <rect x="30" y="30" width="300" height="300" rx="8" fill="#ffffff" stroke="#1e272e" stroke-width="4"/>

  <line x1="130" y1="30" x2="130" y2="330" stroke="#1e272e" stroke-width="3"/>
  <line x1="230" y1="30" x2="230" y2="330" stroke="#1e272e" stroke-width="3"/>
  <line x1="30" y1="130" x2="330" y2="130" stroke="#1e272e" stroke-width="3"/>
  <line x1="30" y1="230" x2="330" y2="230" stroke="#1e272e" stroke-width="3"/>

  <g stroke="#dfe6e9" stroke-width="1">
    <line x1="63.3" y1="30" x2="63.3" y2="330"/>
    <line x1="96.7" y1="30" x2="96.7" y2="330"/>
    <line x1="163.3" y1="30" x2="163.3" y2="330"/>
    <line x1="196.7" y1="30" x2="196.7" y2="330"/>
    <line x1="263.3" y1="30" x2="263.3" y2="330"/>
    <line x1="296.7" y1="30" x2="296.7" y2="330"/>
    <line x1="30" y1="63.3" x2="330" y2="63.3"/>
    <line x1="30" y1="96.7" x2="330" y2="96.7"/>
    <line x1="30" y1="163.3" x2="330" y2="163.3"/>
    <line x1="30" y1="196.7" x2="330" y2="196.7"/>
    <line x1="30" y1="263.3" x2="330" y2="263.3"/>
    <line x1="30" y1="296.7" x2="330" y2="296.7"/>
  </g>

  <g font-family="Poppins, Arial, sans-serif" font-size="22" text-anchor="middle" dominant-baseline="central">
    <text x="46.7" y="46.7" fill="#1e272e" font-weight="700">5</text>
    <text x="80" y="46.7" fill="#1e272e" font-weight="700">3</text>
    <text x="113.3" y="46.7" fill="#0984e3" font-weight="500">4</text>
    <text x="213.3" y="46.7" fill="#1e272e" font-weight="700">7</text>

    <text x="46.7" y="80" fill="#1e272e" font-weight="700">6</text>
    <text x="80" y="80" fill="#0984e3" font-weight="500">7</text>
    <text x="113.3" y="80" fill="#0984e3" font-weight="500">2</text>
    <text x="146.7" y="80" fill="#1e272e" font-weight="700">1</text>
    <text x="180" y="80" fill="#1e272e" font-weight="700">9</text>
    <text x="213.3" y="80" fill="#1e272e" font-weight="700">5</text>

    <text x="80" y="113.3" fill="#1e272e" font-weight="700">9</text>
    <text x="113.3" y="113.3" fill="#1e272e" font-weight="700">8</text>
    <text x="313.3" y="113.3" fill="#1e272e" font-weight="700">6</text>

    <text x="46.7" y="146.7" fill="#1e272e" font-weight="700">8</text>
    <text x="180" y="146.7" fill="#1e272e" font-weight="700">6</text>
    <text x="313.3" y="146.7" fill="#1e272e" font-weight="700">3</text>

    <text x="46.7" y="180" fill="#1e272e" font-weight="700">4</text>
    <text x="146.7" y="180" fill="#1e272e" font-weight="700">8</text>
    <text x="213.3" y="180" fill="#1e272e" font-weight="700">3</text>
    <text x="313.3" y="180" fill="#1e272e" font-weight="700">1</text>

    <text x="46.7" y="213.3" fill="#1e272e" font-weight="700">7</text>
    <text x="180" y="213.3" fill="#1e272e" font-weight="700">2</text>
    <text x="313.3" y="213.3" fill="#1e272e" font-weight="700">6</text>

    <text x="80" y="246.7" fill="#1e272e" font-weight="700">6</text>
    <text x="246.7" y="246.7" fill="#1e272e" font-weight="700">2</text>
    <text x="280" y="246.7" fill="#1e272e" font-weight="700">8</text>

    <text x="146.7" y="280" fill="#1e272e" font-weight="700">4</text>
    <text x="180" y="280" fill="#1e272e" font-weight="700">1</text>
    <text x="213.3" y="280" fill="#1e272e" font-weight="700">9</text>
    <text x="313.3" y="280" fill="#1e272e" font-weight="700">5</text>

    <text x="180" y="313.3" fill="#1e272e" font-weight="700">8</text>
    <text x="280" y="313.3" fill="#1e272e" font-weight="700">7</text>
    <text x="313.3" y="313.3" fill="#1e272e" font-weight="700">9</text>
  </g>

  <rect x="96.7" y="30" width="33.3" height="33.3" fill="#0984e3" opacity="0.1"/>
</svg>
